<svg id="Layer_1" data-name="Layer 1" xmlns="http://www.w3.org/2000/svg" viewBox="0 0 200 200"><defs><style>.cls-1,.cls-3{fill:#fff;}.cls-1,.cls-2{stroke:#000;stroke-miterlimit:10;stroke-width:2px;}.cls-2{fill:none;}</style></defs><title>Icons for main section - black outline</title><path d="M121.32,163.3H78.54v-2.79c0-16.53-6.88-26-14.17-36-8.2-11.24-16.67-22.87-16.67-44.78a53,53,0,0,1,106,0,52.33,52.33,0,0,1-6,24.38c-3.24,8-7.81,14.31-12.22,20.37-7.29,10-14.17,19.46-14.17,36Z"/><path class="cls-1" d="M119.88,158.52H80.09v-2.6c0-15.37-6.4-24.15-13.18-33.45C59.29,112,51.41,101.2,51.41,80.84a49.28,49.28,0,0,1,98.56,0,48.66,48.66,0,0,1-5.56,22.67c-3,7.48-7.26,13.3-11.36,18.94-6.78,9.31-13.18,18.1-13.18,33.47Z"/><path class="cls-2" d="M62.56,80.75a9.48,9.48,0,0,1,7-.43,7.38,7.38,0,0,1,3.57,2.55,8,8,0,0,1,3-4,5.41,5.41,0,0,1-3.39-2.39,6.6,6.6,0,0,1-.35-6.42,4.89,4.89,0,0,1,3.38-2.6c-2.73-3.92-1.45-7.55.59-9.55s5.32-2.94,7.71-1.44c2.84-5.56,6.59-5.42,8.11-5.08a7.37,7.37,0,0,1,5.49,7.06,6.41,6.41,0,0,1-1.36,4.1,4.13,4.13,0,0,1,2.3,1A5.42,5.42,0,0,1,99.8,65.3V55.84c0-6.7-4.82-10.2-9.59-10.2a9.07,9.07,0,0,0-7.89,4.48l-.26.42-.44-.22a5.36,5.36,0,0,0-6.48,1.78,3.7,3.7,0,0,0-.4,3.54l.36.9-1-.18a6,6,0,0,0-1.14-.1,9.78,9.78,0,0,0-7.66,4.23,8.89,8.89,0,0,0-.76,8.62l.23.6-.63.12a5.49,5.49,0,0,0-4.37,5.1C59.56,77.55,60.68,79.93,62.56,80.75Z"/><path class="cls-2" d="M97.59,115.65a4,4,0,0,0-3.83-.1l-1.25.47.54-1.22c1.77-4,.88-7.3-2.38-8.79-3-1.37-6.66-.63-7.68,1.55l-1-.48c1.43-3,6-3.55,9.17-2.1A7.27,7.27,0,0,1,92.81,106c1.78-.35,2.88-2.11,3.19-3.82.27-1.47,0-3.21-1.18-3.79l.49-1c1.49.72,2.21,2.73,1.79,5a5.89,5.89,0,0,1-3.41,4.53c1.31,1.64,1.9,4,.81,7.2a4.55,4.55,0,0,1,3.72.57,5,5,0,0,1,1.57,1.91V71.8h0c0-3.72-.65-6.2-1.93-7.37a3.36,3.36,0,0,0-2.7-.78,5.51,5.51,0,0,1-2,.91,4.31,4.31,0,0,1-5-2.34l1-.46a3.17,3.17,0,0,0,3.74,1.69,4.75,4.75,0,0,0,3.64-5,6.21,6.21,0,0,0-4.61-6c-2.76-.61-5.36,1.24-7.15,5.07l-.32.68-.57-.49c-1.92-1.66-4.94-.82-6.76,1s-2.91,5.19.1,8.82l.73.88-1.14,0a3.89,3.89,0,0,0-3.45,2.12,5.44,5.44,0,0,0,.3,5.29,4.53,4.53,0,0,0,4.17,2,10.72,10.72,0,0,1,1.67-.58A12.54,12.54,0,0,1,81.57,77a5.89,5.89,0,0,1,.15-6.55,5.44,5.44,0,0,1,7-1.8l-.45,1a4.36,4.36,0,0,0-5.62,1.4A4.67,4.67,0,0,0,83,77c2.85.08,5.36,1.1,6,2.7l-1,.44c-.64-1.52-4.55-2.6-8.19-1.68A7.41,7.41,0,0,0,74,84.23c0,.06.06.1.09.16l-.12.05a11.23,11.23,0,0,0-.09,3l-1.12.11a12.36,12.36,0,0,1,.09-3.14,6.24,6.24,0,0,0-3.58-3,8.28,8.28,0,0,0-6.52.55l-.09-.16a4.21,4.21,0,0,0,2.21,7.82l2.1-.09-1.52,1c-1.94,1.34-2.68,4.36-1.8,7.36a7,7,0,0,0,6.59,5.39l1.56.05-1.27.91a3.65,3.65,0,0,0-1.6,4.16A3.34,3.34,0,0,0,72,110.79a4,4,0,0,0,2-.56l2.49-1.4L74.66,111a5.74,5.74,0,0,0-.94,6.2c1.37,2.91,5,4.38,9,3.53h.06a4.2,4.2,0,0,1,.59-.53c-2.81-.81-3.79-2.45-4.13-3.45a5.1,5.1,0,0,1,1.24-5.11,3.63,3.63,0,0,1,3.79-1l-.35,1.07a2.54,2.54,0,0,0-2.64.75,4,4,0,0,0-1,3.95c.55,1.61,2.27,2.69,4.86,3l2.58.35-2.5.75a3.45,3.45,0,0,0-1.84,1.22,8.79,8.79,0,0,0,8.87,7.85h0a7.36,7.36,0,0,0,5.19-2,8.31,8.31,0,0,0,2.26-5.68C99.66,118.79,98.91,116.56,97.59,115.65ZM77.44,101.54a6.16,6.16,0,0,1-2.14-.38c-3.22-1.18-4.62-4.7-4.68-4.85l1.05-.41s1.29,3.2,4,4.21a6.37,6.37,0,0,0,5.3-.71,5,5,0,0,0,2.78-4.77,4.44,4.44,0,0,0-2.48-3.88c-1.27-.49-2.67,0-4,1.28l-.78-.81c2.28-2.21,4.26-1.9,5.24-1.52a5.52,5.52,0,0,1,3.2,4.87c0,.17,0,.33,0,.49,5.73,1.69,8.94-.59,10-3.36s.34-6.17-2.63-7.58l-.89-.42.82-.55c2.46-1.66,2.61-3.88,1.66-5.35a2.6,2.6,0,0,0-3.58-1l-.6-1a3.73,3.73,0,0,1,5.12,1.35,4.76,4.76,0,0,1-1.26,6.36A7.16,7.16,0,0,1,96,92.11a7.47,7.47,0,0,1-7.37,4.67,14.13,14.13,0,0,1-3.82-.59,6.22,6.22,0,0,1-3.24,4.2A8.64,8.64,0,0,1,77.44,101.54Z"/><path class="cls-2" d="M138.83,80.75a9.48,9.48,0,0,0-7-.43,7.39,7.39,0,0,0-3.58,2.55,7.94,7.94,0,0,0-3-4,5.41,5.41,0,0,0,3.39-2.39,6.6,6.6,0,0,0,.35-6.42,4.89,4.89,0,0,0-3.38-2.6c2.73-3.92,1.45-7.55-.59-9.55s-5.32-2.94-7.71-1.44c-2.84-5.56-6.59-5.42-8.11-5.08a7.38,7.38,0,0,0-5.49,7.06,6.41,6.41,0,0,0,1.36,4.1,4.13,4.13,0,0,0-2.3,1,5.43,5.43,0,0,0-1.21,1.71V55.84c0-6.7,4.82-10.2,9.59-10.2a9.07,9.07,0,0,1,7.89,4.48l.25.42.44-.22a5.36,5.36,0,0,1,6.48,1.78,3.7,3.7,0,0,1,.4,3.54l-.36.9,1-.18a6,6,0,0,1,1.14-.1A9.78,9.78,0,0,1,136,60.49a8.88,8.88,0,0,1,.76,8.62l-.23.6.63.12a5.49,5.49,0,0,1,4.37,5.1C141.83,77.55,140.71,79.93,138.83,80.75Z"/><path class="cls-2" d="M101.64,121.93a8.32,8.32,0,0,0,2.26,5.68,7.36,7.36,0,0,0,5.19,2h0a8.79,8.79,0,0,0,8.87-7.85,3.45,3.45,0,0,0-1.84-1.22l-2.5-.75,2.58-.35c2.59-.35,4.31-1.43,4.86-3a4,4,0,0,0-1-3.95,2.54,2.54,0,0,0-2.64-.75l-.35-1.07a3.62,3.62,0,0,1,3.79,1,5.1,5.1,0,0,1,1.24,5.11c-.34,1-1.32,2.65-4.13,3.45a4.21,4.21,0,0,1,.59.53h.06c4,.85,7.65-.62,9-3.53a5.73,5.73,0,0,0-.94-6.2l-1.82-2.2,2.49,1.4a4,4,0,0,0,2,.56,3.34,3.34,0,0,0,3.15-2.37,3.65,3.65,0,0,0-1.6-4.16l-1.27-.91,1.56-.05a7,7,0,0,0,6.59-5.39c.88-3,.14-6-1.8-7.36l-1.52-1,2.1.09a4.21,4.21,0,0,0,2.21-7.82l-.09.16a8.28,8.28,0,0,0-6.52-.55,6.23,6.23,0,0,0-3.58,3,12.45,12.45,0,0,1,.08,3.14l-1.12-.11a11.27,11.27,0,0,0-.09-3l-.12-.05c0-.06.06-.1.09-.16a7.41,7.41,0,0,0-5.83-5.81c-3.64-.92-7.54.16-8.19,1.68l-1-.44c.68-1.6,3.19-2.62,6-2.7a4.67,4.67,0,0,0,.32-5.87,4.36,4.36,0,0,0-5.62-1.4l-.45-1a5.44,5.44,0,0,1,7,1.8,5.89,5.89,0,0,1,.15,6.55,12.54,12.54,0,0,1,2.06.33,10.75,10.75,0,0,1,1.67.58,4.53,4.53,0,0,0,4.17-2,5.44,5.44,0,0,0,.3-5.29,3.89,3.89,0,0,0-3.44-2.12l-1.14,0,.73-.88c3-3.62,2-6.93.1-8.82s-4.85-2.63-6.76-1l-.56.49-.32-.68c-1.78-3.83-4.39-5.68-7.15-5.07a6.21,6.21,0,0,0-4.61,6,4.75,4.75,0,0,0,3.64,5,3.17,3.17,0,0,0,3.74-1.69l1,.46a4.31,4.31,0,0,1-5,2.34,5.51,5.51,0,0,1-2-.91,3.36,3.36,0,0,0-2.7.78c-1.28,1.17-1.93,3.65-1.93,7.37h0v44.83a5,5,0,0,1,1.57-1.91,4.55,4.55,0,0,1,3.72-.57c-1.09-3.17-.5-5.56.81-7.2a5.89,5.89,0,0,1-3.41-4.53c-.42-2.27.31-4.29,1.79-5l.49,1c-1.19.57-1.45,2.32-1.18,3.79.31,1.7,1.42,3.47,3.19,3.82a7.28,7.28,0,0,1,1.67-1.05c3.19-1.45,7.74-.95,9.17,2.1l-1,.48c-1-2.18-4.69-2.92-7.68-1.55-3.26,1.49-4.15,4.77-2.38,8.79l.54,1.22-1.25-.47a4,4,0,0,0-3.83.1C102.48,116.56,101.73,118.79,101.64,121.93Zm18.23-21.55a6.22,6.22,0,0,1-3.25-4.2,14.13,14.13,0,0,1-3.82.59,7.47,7.47,0,0,1-7.37-4.67,7.16,7.16,0,0,1,2.41-8.57,4.76,4.76,0,0,1-1.26-6.36,3.73,3.73,0,0,1,5.12-1.35l-.6,1a2.6,2.6,0,0,0-3.58,1c-.95,1.47-.81,3.69,1.66,5.35l.82.55-.89.42c-3,1.41-3.66,5-2.63,7.58s4.3,5,10,3.36c0-.16,0-.33,0-.49a5.52,5.52,0,0,1,3.2-4.87c1-.38,3-.69,5.24,1.52l-.78.81c-1.38-1.33-2.78-1.78-4-1.28a4.44,4.44,0,0,0-2.48,3.88,5,5,0,0,0,2.78,4.77,6.37,6.37,0,0,0,5.3.71c2.74-1,4-4.17,4-4.21l1.05.41c-.06.15-1.46,3.67-4.68,4.85a6.16,6.16,0,0,1-2.14.38A8.63,8.63,0,0,1,119.87,100.39Z"/><rect x="74.29" y="154.1" width="51.56" height="44.9" rx="11.25" ry="11.25"/><rect class="cls-3" x="77.11" y="160.3" width="45.83" height="4.49" rx="2.25" ry="2.25"/><rect class="cls-3" x="77.11" y="169.71" width="45.83" height="4.51" rx="2.25" ry="2.25"/><rect class="cls-3" x="77.11" y="179.13" width="45.83" height="4.49" rx="2.25" ry="2.25"/><rect class="cls-3" x="77.11" y="188.55" width="45.83" height="4.51" rx="2.25" ry="2.25"/><path d="M100.69,25.64A2.6,2.6,0,0,1,98.1,23V3.6a2.6,2.6,0,0,1,5.19,0V23A2.6,2.6,0,0,1,100.69,25.64Z"/><path d="M177.64,83H158.19a2.6,2.6,0,1,1,0-5.19h19.44a2.6,2.6,0,0,1,0,5.19Z"/><path d="M41.81,84.65H22.36a2.6,2.6,0,0,1,0-5.19H41.81a2.6,2.6,0,0,1,0,5.19Z"/><path d="M58.27,43.26a2.59,2.59,0,0,1-1.84-.76L42.68,28.75a2.6,2.6,0,0,1,3.67-3.67L60.1,38.83a2.6,2.6,0,0,1-1.84,4.43Z"/><path d="M140.57,42.1a2.6,2.6,0,0,1-1.84-4.43l13.75-13.75a2.6,2.6,0,0,1,3.67,3.67L142.4,41.34A2.59,2.59,0,0,1,140.57,42.1Z"/></svg>