<svg id="Layer_1" data-name="Layer 1" xmlns="http://www.w3.org/2000/svg" viewBox="0 0 200 200"><defs><style>.cls-1,.cls-2,.cls-3{fill:#fff;}.cls-2{opacity:0.77;}.cls-3{stroke:#000;stroke-miterlimit:10;stroke-width:3px;}</style></defs><title>Icons for main section - black outline</title><path d="M100.39,105.08l-1-1a5.85,5.85,0,0,0-8.28,0l-42.6,42.21a5.85,5.85,0,0,0,0,8.27l1,1a5.84,5.84,0,0,0,8.27,0l42.61-42.21A5.84,5.84,0,0,0,100.39,105.08Z"/><path d="M181.28,23.92a61.19,61.19,0,1,0-.4,86.54A61.19,61.19,0,0,0,181.28,23.92ZM105.4,99.09a45.61,45.61,0,1,1,64.51.3A45.61,45.61,0,0,1,105.4,99.09Z"/><path d="M13.35,171.2a6,6,0,0,0-.27,8.51l10.73,10.84a6,6,0,0,0,8.51-.19l51.58-51-19-19.15Z"/><path d="M94,79.77a45.64,45.64,0,0,1,57-56.46q2.11.64,4.17,1.48a45.49,45.49,0,0,1,15,10.09l11.07-11A61.19,61.19,0,0,0,90,105.12L73.7,121.25l-4.86-4.9-3.9,3.87-51.59,51a6,6,0,0,0-.27,8.51l5.37,5.42L49,155l25.46-25.22,3.91-3.87,16-15.86,5.54-5.49,5.52-5.47A45.46,45.46,0,0,1,95.45,84C94.9,82.58,94.42,81.18,94,79.77Z"/><circle class="cls-1" cx="138.18" cy="67.38" r="52.94" transform="translate(70.15 205.25) rotate(-89.73)"/><circle class="cls-2" cx="129.29" cy="46.54" r="22.89"/><path class="cls-3" d="M97.27,130.56l-22.77-.82-8.6-.06-7.53-.84.38-.36,11.44-3.09c3.92-1.06,7-4.73,7.92-9.41a6.41,6.41,0,0,0-.86-5.07c-.06-.08-.15-.14-.22-.22a3.56,3.56,0,0,0-.41-.41,3.37,3.37,0,0,0-.43-.27,4.11,4.11,0,0,0-3.21-.29l-2.05.51-3.4.85-3.62.91-1.23.31-9.08,2.28A7.3,7.3,0,0,0,50.92,116l-11.55,5.76-14,8c-5.06,2.32-15.48,9.88-15.48,9.88L1,141.28v38.88l8.93,1.76,1,.54c3.44,1.85,14.58,7.75,16.57,8.3,11.55,3.19,15.18,2.92,16.73,3.35a17.58,17.58,0,0,0,3.46,0,3.25,3.25,0,0,0,.67,0l2.54-.23c4.54-.31,9.66-.8,9.66-.8l.2-.1,7.51-.69,12.82-1.66c2.67-.11,4.9-1,5.17-5.27.32-5.12-2.15-7.36-5.24-7.24l-26.48-.36,33.38-1.23c3,0,5.52-.92,5.89-5.73.44-5.75-2.31-8.36-5.8-8.34l-31.4-.15L93,162c3,0,5.52-.87,5.91-5.68.46-5.75-2.28-8.38-5.76-8.4l-18-1.81-.57,0-18-.51H74.62l22.73-1.72c2.85-.11,5.22-1,5.51-5.62C103.2,132.82,100.57,130.44,97.27,130.56Z"/></svg>