<svg xmlns="http://www.w3.org/2000/svg" viewBox="0 0 200 200"><defs><style>.cls-1{isolation:isolate;}.cls-2,.cls-5{fill:none;}.cls-2{stroke:#1a193a;}.cls-2,.cls-5,.cls-6,.cls-7{stroke-miterlimit:10;}.cls-2,.cls-5,.cls-6{stroke-width:3px;}.cls-3{fill:#1a193a;}.cls-4{fill:#b1b4b3;mix-blend-mode:multiply;}.cls-5,.cls-6,.cls-7{stroke:#000;}.cls-6,.cls-7{fill:#fff;}.cls-7{stroke-width:4px;}</style></defs><title>Icons for main section - black outline</title><g class="cls-1"><g id="Layer_1" data-name="Layer 1"><path class="cls-2" d="M89.12,109.94l.65-.87.27-.37h.76l.28.36.67.86.65-.87.27-.37h.76l.28.36.67.86L95,109l.27-.37H96l.28.36.67.86.65-.87.27-.37h.76l.28.36.67.86.65-.87.27-.37h.76l.28.36.67.86.65-.87.27-.37h.76l.28.36.67.86.65-.87.27-.37h.76l.28.36.67.86.65-.87.27-.37h.76l.28.36.67.86.65-.87.27-.37h.76l.28.36.67.86.65-.87.27-.37h.76l.28.36.67.86.65-.87.27-.37H117l.28.36.67.86.65-.87.27-.37h.76l.28.36.67.86.65-.87.27-.37h.76l.28.36.67.86.65-.87.27-.37h.76l.28.36.67.86.65-.87.27-.37h.76l.28.36.67.86.65-.87.27-.37h.76l.28.36.67.86.65-.87.27-.37h.76l.28.36.67.86.65-.87.27-.37h.76l.28.36.67.86.65-.87.27-.37H138l.28.36.67.86.65-.87.27-.37h.76l.28.36.67.86.65-.87.27-.37h.76l.28.36.67.86.65-.87.27-.37h.76l.28.36.67.86.65-.87.27-.37h.76l.28.36.67.86.65-.87.27-.37h.76l.28.36.67.86.65-.87L153,108h.76l.28.36.67.86.65-.87.27-.37h.76l.28.36.67.86.65-.87.27-.37H159l.28.36.67.86.65-.87.27-.37h.76l.28.36.67.86.65-.87.27-.37h.76l.28.36.67.86.65-.87.27-.37h.76l.28.36.67.86.65-.87.27-.37h.76l.28.36.67.86.65-.87.27-.37h.76l.28.36.67.86.65-.87.27-.37h1l5.53,2.74a2.61,2.61,0,0,0,2.31,0l12.68-6.22a.72.72,0,0,0,.33-1l-.73-1.49a.72.72,0,0,0-1-.33h0a1.67,1.67,0,0,1-2.23-.76L183.66,84a1.67,1.67,0,0,1,.76-2.23h0a.72.72,0,0,0,.33-1L184,79.26a.72.72,0,0,0-1-.33l-21.4,10.49-71,7.78A2,2,0,0,0,89,98.83l-1.53,8.45a1.22,1.22,0,0,0,.61,1.28l.41.53Zm80.65-10-2.82-5.76a1.67,1.67,0,0,1,.76-2.24l9.92-4.87a1.34,1.34,0,0,1,1.79.61l6.77,13.79a1.34,1.34,0,0,1-.61,1.79l-4.21,2.06a1.67,1.67,0,0,1-1.48,0l-9.37-4.64A1.67,1.67,0,0,1,169.77,99.91Z"/><path class="cls-2" d="M119.78,7.5h-4.71a5.06,5.06,0,0,1-9.88,0H89.88c-8.58,0-16.16,8.67-17.19,17,1.4-3.1,5.5-7.56,9.71-7.56S90,19,91.49,22H96V51.7c-1.59.55-2.78,2.53-2.78,4.91v48.17a2.41,2.41,0,0,0,2.21,2.58h8a2.42,2.42,0,0,0,2.21-2.58V56.61c0-2.37-1.19-4.36-2.78-4.91V22h2.31A5.06,5.06,0,0,1,115,22h4.76a1.52,1.52,0,0,0,1.52-1.52V9A1.52,1.52,0,0,0,119.78,7.5Zm-17.32,93.1a3,3,0,1,1-3-3A3,3,0,0,1,102.45,100.6Z"/><path class="cls-2" d="M7.65,101.29l-.19.17-.07.06-.15.14-.09.09-.12.14-.09.11-.1.13-.08.11-.09.13-.07.12-.07.13-.06.14-.05.12c0,.09-.06.18-.09.27h6.47A6.69,6.69,0,0,1,17,101.85a7.86,7.86,0,0,1,2.39.36,5.47,5.47,0,0,1,1.82,1h5.09c0,.08,0,.16,0,.24s0,.16,0,.24H21.23a5.47,5.47,0,0,1-1.83,1A7.86,7.86,0,0,1,17,105a6.69,6.69,0,0,1-4.22-1.33H6.32c0,.09.05.18.09.27l.05.12.06.14.07.13.07.13.08.13.09.12.09.12.1.12.1.11.12.13.11.11.14.13.11.1,0,0h0c2.34,1.92,7.32,3.1,13.23,4.25,3.51.68,6.85-.53,9.39-1.43a5,5,0,0,0,3.1-.31A39.28,39.28,0,0,0,39,110.86h0c0,.06,0,.13,0,.2,0,2.84,1.62,5.15,3.62,5.15a3.1,3.1,0,0,0,2.4-1.29,1.93,1.93,0,0,1,1.84-.68,86.61,86.61,0,0,0,33.27-.84,3.62,3.62,0,0,0,.74-7,4,4,0,0,0-2.33-.18,79.24,79.24,0,0,1-34.58,0l-.27,0a2.68,2.68,0,0,0-.46-.15,2.42,2.42,0,0,0-.6-.07,2.63,2.63,0,0,0-1.15.27,34,34,0,0,1-5.09-2.49c0-.08,0-.17,0-.25s0-.17,0-.25a34,34,0,0,1,5.1-2.48,2.63,2.63,0,0,0,1.15.27,2.42,2.42,0,0,0,.6-.07,2.68,2.68,0,0,0,.46-.15l.27,0a79.24,79.24,0,0,1,34.58,0,4,4,0,0,0,2.33-.18,3.62,3.62,0,0,0-.72-7,86.61,86.61,0,0,0-33.27-.92A1.93,1.93,0,0,1,45,92a3.1,3.1,0,0,0-2.4-1.3c-2,0-3.63,2.3-3.63,5.15,0,.07,0,.13,0,.2h0a39.28,39.28,0,0,0-5.62,2.82,5,5,0,0,0-3.09-.32c-2.54-.91-5.87-2.13-9.39-1.45C15,98.21,10,99.38,7.65,101.29h0Z"/><path class="cls-2" d="M106.17,87.27l5.2-6.22a2.43,2.43,0,0,1,3.43-.31l2.45,2a2.43,2.43,0,0,1,.31,3.43l-5.2,6.22A.94.94,0,0,0,113,94a10,10,0,0,0,10.89-12.15l34.57-31.74A10,10,0,0,0,171,38.42a.93.93,0,0,0-1.64-.4l-4.78,5.87a2.43,2.43,0,0,1-3.42.35l-3.63-3a2.43,2.43,0,0,1-.35-3.42L162,32a.94.94,0,0,0-.73-1.52,10,10,0,0,0-9.73,12.27L117,74.45a10,10,0,0,0-12.4,12.49A.94.94,0,0,0,106.17,87.27Z"/><path class="cls-2" d="M33,29.73l.48-.46a.76.76,0,0,1,1,0l4.18,3.17L68.11,63.58l1.53-1.45a1,1,0,0,1,1.48,0l3,3.12a1,1,0,0,1,0,1.48l-.06.05L86,78.76a2.56,2.56,0,0,1,2.22.77L99.13,91a2.57,2.57,0,0,1-.1,3.63l-4.29,4.06a2.57,2.57,0,0,1-3.63-.1L80.24,87.13a2.56,2.56,0,0,1-.66-2.26L68.3,72.2l-.06.05a1,1,0,0,1-1.48,0l-3-3.12a1,1,0,0,1,0-1.48l1.53-1.45L35.9,35.08,33,30.71A.76.76,0,0,1,33,29.73Z"/><path class="cls-3" d="M128.75,153.84h-4.87V144.1c0-1.61-.19-2.63-.56-3-.22-.24-.92-.63-3.09-.63H80c-2.17,0-2.87.4-3.09.63-.37.4-.56,1.41-.56,3v9.75H71.5V144.1c0-6,2.55-8.53,8.53-8.53h40.2c6,0,8.53,2.55,8.53,8.53Z"/><path class="cls-4" d="M123.88,153.84h4.87v-3.93c-1.62.06-3.25.13-4.87.15Z"/><path class="cls-4" d="M71.5,150.14v3.7h4.87v-4.53C74.76,149.62,73.13,149.9,71.5,150.14Z"/><rect class="cls-5" x="60.85" y="178.86" width="77.97" height="20.14"/><path class="cls-5" d="M141.09,158.72a2.92,2.92,0,0,0-2.92-2.92H61.83a2.92,2.92,0,0,0-2.92,2.92v20.14h82.19Z"/><rect class="cls-6" x="92.88" y="168.22" width="13.89" height="13.89" rx="2.92" ry="2.92"/><path d="M80.51,154.82a2.92,2.92,0,0,0-2.92-2.92H71.25a2.92,2.92,0,0,0-2.92,2.92v1H80.51Z"/><path d="M132.41,154.82a2.92,2.92,0,0,0-2.92-2.92h-6.34a2.92,2.92,0,0,0-2.92,2.92v1h12.18Z"/><path class="cls-7" d="M145,110.67l-2.81-2h0l-2.94-2h0l-4.16-2.88a35.09,35.09,0,0,0-.18-8.94l6.9-5.19h0l2.75-2.07-5.19-11.88-11.88,2.15a35.1,35.1,0,0,0-6.43-6.21l.71-5h0l1-6.94L110.67,55l-4,5.75h0l-2.88,4.15a35.09,35.09,0,0,0-9,.17l-7.24-9.62L75.73,60.63l.6,3.34h0l1.54,8.48a35.1,35.1,0,0,0-6.26,6.48l-5-.71h0l-6.87-1L55,89.33l2.76,1.91h0l2.94,2h0l4.15,2.88a35.1,35.1,0,0,0,.18,9l-9.58,7.2,5.19,11.88,11.79-2.13a35.09,35.09,0,0,0,6.51,6.27l-.71,5h0l-1,6.86L89.33,145l4-5.7h0l2.88-4.16a35.1,35.1,0,0,0,9-.19l7.22,9.61,11.88-5.19-2.14-11.85a35.09,35.09,0,0,0,6.22-6.46l11.93,1.69Z"/></g></g></svg>