<?xml version="1.0" encoding="utf-8"?>
<!-- Generator: Adobe Illustrator 22.1.0, SVG Export Plug-In . SVG Version: 6.00 Build 0)  -->
<svg version="1.1" id="Layer_1" xmlns="http://www.w3.org/2000/svg" xmlns:xlink="http://www.w3.org/1999/xlink" x="0px" y="0px"
	 viewBox="0 0 32 32" style="enable-background:new 0 0 32 32;" xml:space="preserve">
<style type="text/css">
	.st0{fill:#FFFFFF;}
</style>
<g>
	<path class="st0" d="M15.9,31.6c-0.1-0.9-0.3-1.8-0.4-2.8c-0.5-4-1-7.9-2.1-11.8c-0.5-1.8-1.2-3.6-2.5-5c-1.1-1.2-2.4-2.1-3.7-3
		c-0.8-0.5-1.6-1-2.4-1.5C4.4,7.4,4,7.1,4.2,6.6c0.2-0.5,0.7-0.5,1.1-0.4c1,0.2,2.1,0.4,3.1,0.8c1.9,0.8,3.8,1.7,5.4,3.1
		c1.6,1.4,2.4,3.2,2.5,5.3c0.2,3.7,0.3,7.4,0.4,11.2c0,1.5-0.2,2.9-0.4,4.4c0,0.2-0.1,0.5-0.2,0.7C16,31.6,15.9,31.6,15.9,31.6z"/>
	<path class="st0" d="M18.1,29.6c-0.1-0.4-0.2-0.7-0.3-1.1c-0.4-2.9-0.3-5.9-0.2-8.8c0-1.9,0.1-3.7,0-5.6c-0.1-3.1,1.4-5.3,4-6.8
		c1.5-0.9,3.1-1.6,4.7-2.3c0.3-0.2,0.7-0.2,1.1-0.2c0.2,0,0.4,0.1,0.5,0.2c0.1,0.1,0,0.4-0.1,0.5C27.5,5.8,27.3,6,27,6.2
		c-2.2,1.7-4,3.7-5.1,6.4c-0.6,1.5-1,3.1-1.3,4.7c-0.8,3.7-1.4,7.5-2.1,11.2c-0.1,0.3-0.2,0.7-0.3,1C18.2,29.6,18.1,29.6,18.1,29.6z
		"/>
	<path class="st0" d="M20.1,4.9c0,2.4-2,4.5-4.5,4.5c-2.5,0-4.5-2-4.5-4.5c0-2.4,2-4.4,4.5-4.5C18.1,0.3,20.1,2.4,20.1,4.9z"/>
</g>
</svg>
