<svg id="Layer_1" xmlns="http://www.w3.org/2000/svg" viewBox="0 0 32 32"><path d="M15.9 31.6c-.1-.9-.3-1.8-.4-2.8-.5-4-1-7.9-2.1-11.8-.5-1.8-1.2-3.6-2.5-5-1.1-1.2-2.4-2.1-3.7-3L4.8 7.5c-.4-.1-.8-.4-.6-.9.2-.5.7-.5 1.1-.4 1 .2 2.1.4 3.1.8 1.9.8 3.8 1.7 5.4 3.1 1.6 1.4 2.4 3.2 2.5 5.3.2 3.7.3 7.4.4 11.2 0 1.5-.2 2.9-.4 4.4 0 .2-.1.5-.2.7-.1-.1-.2-.1-.2-.1zm2.2-2c-.1-.4-.2-.7-.3-1.1-.4-2.9-.3-5.9-.2-8.8 0-1.9.1-3.7 0-5.6-.1-3.1 1.4-5.3 4-6.8 1.5-.9 3.1-1.6 4.7-2.3.3-.2.7-.2 1.1-.2.2 0 .4.1.5.2.1.1 0 .4-.1.5-.3.3-.5.5-.8.7-2.2 1.7-4 3.7-5.1 6.4-.6 1.5-1 3.1-1.3 4.7-.8 3.7-1.4 7.5-2.1 11.2-.1.3-.2.7-.3 1 0 .1-.1.1-.1.1zm2-24.7c0 2.4-2 4.5-4.5 4.5s-4.5-2-4.5-4.5c0-2.4 2-4.4 4.5-4.5 2.5-.1 4.5 2 4.5 4.5z" fill="#fff"/></svg>