<svg id="Layer_1" xmlns="http://www.w3.org/2000/svg" viewBox="0 0 374.4 235.9"><style>.st0{fill:#005596}.st1{fill:#f89b41}</style><path class="st0" d="M211.1 64.7l-10.7 21.4h-9.8l10.3-20.5c3.4-.2 6.8-.5 10.2-.9zm48.8-6.9l13.8 28.4h-9.1l-13.2-26.9c2.9-.5 5.7-1 8.5-1.5zm-23.1-47.7L254 45.4c-2.8.7-5.6 1.3-8.4 2l-12.8-26L216.9 53c-3.5.6-7 1.2-10.6 1.7L228.8 10h8v.1zM118 67.2v19h-9.6V66.3c3.1.4 6.3.6 9.6.9zm62.5 0v19h-9.6V67.7c3.2-.2 6.4-.3 9.6-.5zM118 50.9v11.4c-2.7 0-5.4 0-8-.1h-1.6V10.1h9.6v40.8zm62.5-40.8v48.2c-3.2.4-6.4.7-9.6 1V10.1h9.6zM30 106.4c-.3-3.9-.6-8.6-.5-11.4h-.1c-.9 2.8-2 5.8-3.5 9.6l-5.5 14.1H19L13.8 105c-1.5-4-2.6-7.1-3.4-10h-.1c0 3-.2 7.5-.5 11.8L9 118.7H7.1L9 92.9h2.1l5.6 14.9c1.2 3.3 2.1 5.9 2.9 8.4h.1c.7-2.4 1.6-4.9 3-8.3L28.5 93h2.2l1.8 25.8h-1.8l-.7-12.4zm8.7 2.9c0 5.9 3.3 8.2 7.1 8.2 2.7 0 4.1-.5 5.2-1l.5 1.5c-.7.4-2.6 1.2-5.9 1.2-5.4 0-8.7-3.9-8.7-9.3 0-6.1 3.6-10 8.4-10 6.1 0 7.3 5.7 7.3 8.3 0 .5 0 .8-.1 1.1H38.7zm12-1.5c0-2.6-1.1-6.5-5.6-6.5-4.1 0-5.9 3.6-6.2 6.5h11.8zm6.7-3.1c0-1.7-.1-2.9-.2-4.4h1.7l.2 3.3h.1c1-2.1 3.3-3.8 6.4-3.8 1.8 0 6.5.9 6.5 7.8v11h-1.8v-10.9c0-3.3-1.3-6.4-5.2-6.4-2.7 0-4.9 1.8-5.6 4.2-.2.5-.3 1.1-.3 1.6v11.4h-1.8v-13.8zm23.4-8.5v4.1h5.3v1.5h-5.3v11.9c0 2.3.7 3.8 2.7 3.8 1 0 1.7-.2 2.1-.3l.2 1.4c-.6.3-1.5.5-2.6.5-1.4 0-2.5-.5-3.2-1.3-.9-1-1.2-2.5-1.2-4.4v-11.6h-3.2v-1.5H79v-3.4l1.8-.7zm21.1 18.1c0 1.5.1 2.9.3 4.4h-1.7l-.3-2.6h-.1c-.9 1.4-3 3.1-6 3.1-3.7 0-5.5-2.6-5.5-5.1 0-4.2 3.8-6.8 11.4-6.7v-.5c0-1.8-.4-5.5-4.8-5.4-1.6 0-3.4.4-4.7 1.4l-.6-1.3c1.7-1.1 3.8-1.6 5.5-1.6 5.4 0 6.4 4 6.4 7.3v7h.1zm-1.8-5.5c-4.1-.1-9.5.5-9.5 4.9 0 2.6 1.8 3.8 3.7 3.8 3.1 0 4.9-1.9 5.5-3.7.1-.4.2-.8.2-1.1v-3.9h.1zm7.9-17.3h1.8v27.2H108V91.5zm130.8 18.1l-3.2 9h-1.9l9.5-25.8h1.8l9.5 25.8h-1.9l-3.3-9h-10.5zm9.8-1.5l-3.2-8.6c-.6-1.8-1-3.1-1.4-4.6-.4 1.5-.8 2.8-1.4 4.5l-3.2 8.7h9.2zm9.9-3.4c0-1.7-.1-2.9-.2-4.4h1.7l.2 3.3h.1c1.2-2.1 3-3.7 6-3.7 2.6 0 4.6 1.7 5.4 4h.1c.5-1.1 1.2-1.9 1.9-2.5 1.2-1 2.5-1.5 4.5-1.5 1.8 0 6.1 1 6.1 8v10.8h-1.8V108c0-4.1-1.6-6.6-4.9-6.6-2.3 0-4.2 1.7-4.9 3.6-.2.5-.4 1.1-.4 1.8v11.8h-1.8v-11.5c0-3.3-1.6-5.7-4.6-5.7-2.5 0-4.5 2-5.2 4.1-.2.5-.3 1.1-.3 1.8v11.3h-1.8v-13.9h-.1zm32.1 4.6c0 5.9 3.3 8.2 7.1 8.2 2.7 0 4.1-.5 5.2-1l.5 1.5c-.7.4-2.6 1.2-5.9 1.2-5.4 0-8.7-3.9-8.7-9.3 0-6.1 3.6-10 8.4-10 6.1 0 7.3 5.7 7.3 8.3 0 .5 0 .8-.1 1.1h-13.8zm12-1.5c0-2.6-1-6.5-5.6-6.5-4.1 0-5.9 3.6-6.2 6.5h11.8zm6.7-2c0-1.8-.1-3.8-.2-5.5h1.7l.1 3.7h.1c.8-2.3 2.8-4.1 5.3-4.1.2 0 .5 0 .7.1v1.8c-.3-.1-.5-.1-.9-.1-2.6 0-4.4 2.2-4.9 5.1-.1.5-.2 1.2-.2 1.8v10.1h-1.8v-12.9h.1zm14.2-10.7c0 .8-.6 1.6-1.6 1.6-.9 0-1.4-.7-1.4-1.6 0-.8.7-1.6 1.5-1.6.9-.1 1.5.7 1.5 1.6zm-2.5 23.6v-18.4h1.8v18.4H321zm21.1-.8c-.8.4-2.8 1.2-5.5 1.2-5.4 0-9-3.9-9-9.4 0-5.8 4.1-9.8 9.7-9.8 2.3 0 4.2.7 4.9 1.2l-.7 1.5c-.9-.5-2.4-1.1-4.4-1.1-5 0-7.6 3.8-7.6 8.1 0 4.8 3.1 7.9 7.4 7.9 2.2 0 3.7-.6 4.7-1l.5 1.4zm16.1-3.6c0 1.5.1 2.9.3 4.4h-1.7l-.3-2.6h-.1c-.9 1.4-3 3.1-6 3.1-3.7 0-5.5-2.6-5.5-5.1 0-4.2 3.8-6.8 11.4-6.7v-.5c0-1.8-.4-5.5-4.8-5.4-1.6 0-3.4.4-4.7 1.4l-.6-1.3c1.7-1.1 3.8-1.6 5.5-1.6 5.4 0 6.4 4 6.4 7.3v7h.1zm-1.8-5.5c-4.1-.1-9.5.5-9.5 4.9 0 2.6 1.8 3.8 3.7 3.8 3.1 0 4.9-1.9 5.5-3.7.1-.4.2-.8.2-1.1v-3.9h.1zM126.7 92.9v11.3h14.5V92.9h1.8v25.8h-1.8v-12.9h-14.5v12.9h-1.9V92.9h1.9zm22.9 16.4c0 5.9 3.3 8.2 7.1 8.2 2.7 0 4.1-.5 5.2-1l.5 1.5c-.7.4-2.6 1.2-5.9 1.2-5.4 0-8.7-3.9-8.7-9.3 0-6.1 3.6-10 8.4-10 6.1 0 7.3 5.7 7.3 8.3 0 .5 0 .8-.1 1.1h-13.8zm11.9-1.5c0-2.6-1-6.5-5.6-6.5-4.1 0-5.9 3.6-6.2 6.5h11.8zm18.4 6.5c0 1.5.1 2.9.3 4.4h-1.7l-.3-2.6h-.1c-.9 1.4-3 3.1-6 3.1-3.7 0-5.5-2.6-5.5-5.1 0-4.2 3.8-6.8 11.4-6.7v-.5c0-1.8-.3-5.5-4.8-5.4-1.6 0-3.4.4-4.7 1.4l-.6-1.3c1.7-1.1 3.8-1.6 5.5-1.6 5.4 0 6.4 4 6.4 7.3v7h.1zm-1.9-5.5c-4.1-.1-9.5.5-9.5 4.9 0 2.6 1.8 3.8 3.7 3.8 3.1 0 4.9-1.9 5.5-3.7.1-.4.2-.8.2-1.1v-3.9h.1zm7.9-17.3h1.9v27.2h-1.9V91.5zm10.9 4.7v4.1h5.3v1.5h-5.3v11.9c0 2.3.7 3.8 2.7 3.8 1 0 1.7-.2 2.1-.3l.2 1.4c-.6.3-1.5.5-2.6.5-1.4 0-2.5-.5-3.2-1.3-.9-1-1.2-2.5-1.2-4.4v-11.6h-3.2v-1.5h3.2v-3.4l2-.7zm9.4-4.7h1.8v12.1h.1c.5-1 1.4-2 2.6-2.7 1.1-.7 2.3-1 3.8-1 1.8 0 6.5.9 6.5 7.7v11.1h-1.8v-10.9c0-3.3-1.3-6.4-5.1-6.4-2.6 0-4.9 1.9-5.7 4.2-.2.5-.3 1.1-.3 1.8v11.3h-1.8V91.5h-.1zM6.4 86.2V10.1h9.2l31.2 48.4 30.8-48.4h9.1v76.1h-9.6V27.8L46.5 76 15.8 28v58.2H6.4z"/><path class="st1" d="M273.5 41.2c-46.1 13.9-115.9 23-163.5 22-5.1.1-10.1.2-15 .2 3 .6 6.3 1.1 9.9 1.5 48.9 6.1 131.7-.5 184.9-14.9 47.9-12.9 53.4-26.4 23.2-33.4 3.5 7.1-10.9 16-39.5 24.6z"/><path d="M317.1 57C306.6 62.6 295 69.7 286 77c-3 2.5-6.7 4.9-7.5 8.9 2.2 1.5 4.8.1 6.8-.5 2.3-.7 4.5-1.4 6.6-2.3 12.3-5 23.8-11.7 33.8-18.8-2.6-2.6-5.5-5-8.6-7.3zm22.3-9.5c-5.9 1.1-11.5 4.7-16.6 6.6 2 2.3 4.6 3.9 6.8 5.9 1-.8 2.7-1.1 4.5-1.1 3.3-3.4 8.7-5.8 9.5-10.9-1.2-.8-2.9-.8-4.2-.5zm19 38.6h-65.1c12.2-4.4 22-10.9 32-17.5.8 3.4 3.3 5.2 6.1 6.6 10.1 2.9 14-11.9 6.1-15.2 1.6-1.7 4-3.5 6.4-5.9 1.4-1.4 4.9-5.3 4.3-7.9-.6-2.6-5-1.8-7.7-2-6.6-.6-12.1-3-15.9-6.8 11.7-7.2 15.3-15.8-13.8-22.2-5.8-3.1-13.7-3.8-21.3-1.2-.5-2.3-2.4-4.6-4.2-5.9h73.2v78z" fill-rule="evenodd" clip-rule="evenodd" fill="#005596"/><path class="st0" d="M365.8 85.7c-.9 0-1.6-.3-2.2-.9-.6-.6-.9-1.3-.9-2.2 0-.9.3-1.6.9-2.2.6-.6 1.3-.9 2.2-.9.9 0 1.6.3 2.2.9.6.6.9 1.3.9 2.2 0 .9-.3 1.6-.9 2.2-.6.6-1.4.9-2.2.9zm0-5.9c-.8 0-1.4.3-2 .8-.5.5-.8 1.2-.8 2s.3 1.4.8 2c.5.5 1.2.8 2 .8s1.4-.3 2-.8c.5-.5.8-1.2.8-2s-.3-1.4-.8-2c-.6-.5-1.3-.8-2-.8zm1.5 4.8h-.7l-.4-1c-.2-.5-.5-.7-.7-.7h-.4v1.7h-.6v-4h1.1c.5 0 .8.1 1.1.3.3.2.4.5.4.8 0 .3-.1.5-.3.7s-.4.3-.7.4c.2 0 .4.3.7.7l.5 1.1zm-2.2-3.5v1.4h.6c.5 0 .8-.2.8-.7 0-.2-.1-.4-.2-.5-.1-.1-.4-.2-.7-.2h-.5z"/><path class="st1" d="M20.9 168.3l-7.6 19.4H9.1l22.3-55.3h3.9l22.1 55.3h-4.2l-7.8-19.4H20.9zm23.3-3.4l-7.8-19.4c-1.5-3.7-2.2-6.1-3-8.8h-.2c-.8 2.8-1.7 5.2-3 8.5l-7.9 19.7h21.9zm23.3-32.5h30v3.4h-26v21.7h23.8v3.4H71.5v26.8h-4v-55.3zm42.9 0h30v3.4h-26v21.7h23.8v3.4h-23.8v26.8h-4v-55.3zm46.9 0v55.3h-4v-55.3h4zm15.5 0h4v51.9h27.4v3.4h-31.4v-55.3zm45.3 0v55.3h-4v-55.3h4zm22.6 35.9l-7.6 19.4h-4.2l22.3-55.3h3.9l22.1 55.3H273l-7.8-19.4h-24.5zm23.3-3.4l-7.8-19.4c-1.5-3.7-2.2-6.1-3-8.8h-.2c-.8 2.8-1.7 5.2-3 8.5l-7.9 19.7H264zm28.8-29.1h-20.6v-3.4h45.2v3.4h-20.6v51.9h-4v-51.9zm59.8 24.4H328v24.1h27.4v3.4H324v-55.3h30v3.4h-26v21.1h24.6v3.3zM10.3 199h5.8c3.2 0 5.4.3 6.8.8s2.4 1.5 3.2 2.8c.8 1.3 1.2 2.9 1.2 4.7 0 1.9-.5 3.5-1.4 4.7s-2.3 2.2-4.1 2.9l6.8 12.8h-6l-6.5-12.2h-.5v12.2h-5.5V199zm5.5 11.2h1.7c1.7 0 2.9-.2 3.6-.7.7-.5 1-1.2 1-2.3 0-.6-.2-1.2-.5-1.6s-.8-.8-1.3-1c-.5-.2-1.5-.3-3-.3h-1.5v5.9zM33.2 199h15.7v5.4H38.6v5.2h10.3v5.3H38.6v7.6h10.3v5.4H33.2V199zm35.8 3.9l-4.1 3.6c-1.4-2-2.9-3-4.3-3-.7 0-1.3.2-1.8.6-.5.4-.7.8-.7 1.3s.2.9.5 1.4c.4.6 1.8 1.8 4 3.7 2.1 1.7 3.4 2.8 3.8 3.3 1.1 1.1 1.9 2.2 2.4 3.2s.7 2.1.7 3.3c0 2.4-.8 4.3-2.4 5.8-1.6 1.5-3.8 2.3-6.4 2.3-2 0-3.8-.5-5.3-1.5s-2.8-2.6-3.9-4.7l4.6-2.8c1.4 2.5 3 3.8 4.8 3.8.9 0 1.7-.3 2.4-.8s1-1.2 1-1.9-.2-1.3-.7-2c-.5-.7-1.5-1.6-3.2-3-3.1-2.6-5.2-4.5-6.1-5.9s-1.4-2.8-1.4-4.2c0-2 .8-3.7 2.3-5.1 1.5-1.4 3.4-2.1 5.6-2.1 1.4 0 2.8.3 4.1 1 1.2.7 2.6 1.9 4.1 3.7zm19.3-4.6c4.1 0 7.6 1.5 10.5 4.4 2.9 2.9 4.4 6.5 4.4 10.8 0 4.2-1.4 7.7-4.3 10.6-2.9 2.9-6.4 4.4-10.5 4.4-4.3 0-7.9-1.5-10.7-4.5-2.9-3-4.3-6.5-4.3-10.6 0-2.7.7-5.3 2-7.6s3.2-4.1 5.5-5.5c2.2-1.4 4.7-2 7.4-2zm0 5.3c-2.7 0-4.9.9-6.7 2.8-1.8 1.8-2.7 4.2-2.7 7.1 0 3.2 1.1 5.7 3.4 7.5 1.8 1.4 3.8 2.2 6.1 2.2 2.6 0 4.8-.9 6.6-2.8 1.8-1.9 2.7-4.2 2.7-6.9s-.9-5-2.8-6.9-4-3-6.6-3zm19.9-4.6h5.5v18.6c0 1.6.1 2.7.4 3.4.3.7.7 1.2 1.4 1.6.6.4 1.4.6 2.3.6 1 0 1.8-.2 2.5-.7.7-.4 1.2-1 1.4-1.7.3-.7.4-2 .4-3.9V199h5.5v17.1c0 2.9-.2 4.9-.5 6-.3 1.1-.9 2.2-1.9 3.2s-2 1.8-3.2 2.3c-1.2.5-2.6.8-4.2.8-2.1 0-3.9-.5-5.4-1.4s-2.6-2.2-3.3-3.6-1-3.9-1-7.3V199zm26.1 0h5.8c3.2 0 5.4.3 6.8.8s2.4 1.5 3.2 2.8c.8 1.3 1.2 2.9 1.2 4.7 0 1.9-.5 3.5-1.4 4.7s-2.3 2.2-4.1 2.9l6.8 12.8h-6l-6.5-12.2h-.5v12.2h-5.5V199zm5.5 11.2h1.7c1.7 0 2.9-.2 3.6-.7.7-.5 1-1.2 1-2.3 0-.6-.2-1.2-.5-1.6s-.8-.8-1.3-1c-.5-.2-1.5-.3-3-.3h-1.5v5.9zm43.8-6.2l-3.8 3.6c-2.6-2.8-5.5-4.1-8.8-4.1-2.7 0-5.1.9-6.9 2.8s-2.8 4.2-2.8 6.9c0 1.9.4 3.6 1.2 5.1.8 1.5 2 2.7 3.5 3.5 1.5.8 3.2 1.3 5.1 1.3 1.6 0 3-.3 4.4-.9 1.3-.6 2.8-1.7 4.3-3.2l3.7 3.9c-2.1 2.1-4.1 3.5-6 4.3-1.9.8-4 1.2-6.5 1.2-4.5 0-8.1-1.4-11-4.2-2.8-2.8-4.3-6.5-4.3-10.9 0-2.9.6-5.4 1.9-7.6 1.3-2.2 3.2-4 5.6-5.4 2.4-1.4 5-2 7.8-2 2.4 0 4.7.5 6.8 1.5 2.3 1 4.2 2.4 5.8 4.2zm4.8-5h15.7v5.4h-10.3v5.2h10.3v5.3h-10.3v7.6h10.3v5.4h-15.7V199zm57.6 5l-3.8 3.6c-2.6-2.8-5.5-4.1-8.8-4.1-2.7 0-5.1.9-6.9 2.8-1.9 1.9-2.8 4.2-2.8 6.9 0 1.9.4 3.6 1.2 5.1.8 1.5 2 2.7 3.5 3.5 1.5.8 3.2 1.3 5.1 1.3 1.6 0 3-.3 4.4-.9 1.3-.6 2.8-1.7 4.3-3.2l3.7 3.9c-2.1 2.1-4.1 3.5-6 4.3-1.9.8-4 1.2-6.5 1.2-4.5 0-8.1-1.4-11-4.2s-4.3-6.5-4.3-10.9c0-2.9.6-5.4 1.9-7.6s3.2-4 5.6-5.4 5-2 7.8-2c2.4 0 4.7.5 6.8 1.5 2.3 1 4.2 2.4 5.8 4.2zm4.8-5h15.7v5.4h-10.3v5.2h10.3v5.3h-10.3v7.6h10.3v5.4h-15.7V199zm20.8 0h5.2l12.3 18.9V199h5.5v28.7h-5.3L277 208.9v18.8h-5.5V199zm26.7 0h15.9v5.4H309v23.3h-5.5v-23.3h-5.1V199zm19.7 0h15.7v5.4h-10.3v5.2h10.3v5.3h-10.3v7.6h10.3v5.4H318V199zm21.1 0h5.8c3.2 0 5.4.3 6.8.8s2.4 1.5 3.2 2.8 1.2 2.9 1.2 4.7c0 1.9-.5 3.5-1.4 4.7s-2.3 2.2-4.1 2.9l6.8 12.8h-6l-6.5-12.2h-.5v12.2h-5.5V199zm5.5 11.2h1.7c1.7 0 2.9-.2 3.6-.7s1-1.2 1-2.3c0-.6-.2-1.2-.5-1.6-.3-.5-.8-.8-1.3-1-.5-.2-1.5-.3-3-.3h-1.5v5.9z"/></svg>